<svg width="135" height="135" viewBox="0 0 135 135" fill="none" xmlns="http://www.w3.org/2000/svg">
<path d="M53.789 11.25C57.0953 11.2519 60.3314 12.2045 63.1114 13.9942C65.8914 15.7839 68.0982 18.3352 69.4687 21.3441C68.7196 22.2345 68.1628 23.2703 67.8333 24.3864C67.5038 25.5024 67.4087 26.6745 67.554 27.829C67.6992 28.9836 68.0818 30.0956 68.6775 31.0952C69.2732 32.0948 70.0693 32.9604 71.0156 33.6375V103.48C71.0168 106.623 72.136 109.663 74.173 112.056C76.21 114.449 79.0319 116.039 82.134 116.543C85.2362 117.046 88.4162 116.429 91.1053 114.803C93.7943 113.176 95.8172 110.646 96.8119 107.665L98.6203 102.248L98.7187 101.984C98.9885 101.349 99.439 100.808 100.014 100.428C100.589 100.047 101.263 99.844 101.953 99.8438C110.109 99.8438 116.719 93.2344 116.719 85.0781V80.8594C116.719 78.7134 116.297 76.6688 115.537 74.7928C116.35 75.3187 117.259 75.6844 118.215 75.8503C119.861 76.134 121.553 75.8346 123.002 75.0037C123.488 76.8741 123.75 78.8372 123.75 80.8594V85.0781C123.748 90.4103 121.792 95.5569 118.252 99.5441C114.711 103.531 109.832 106.082 104.538 106.715L103.483 109.893C102.288 113.476 100.116 116.655 97.211 119.069C94.306 121.484 90.7841 123.039 87.0426 123.559C83.301 124.078 79.4886 123.542 76.0356 122.011C72.5825 120.479 69.6262 118.013 67.5 114.891C65.3738 118.013 62.4174 120.479 58.9644 122.011C55.5113 123.542 51.699 124.078 47.9574 123.559C44.2158 123.039 40.6939 121.484 37.789 119.069C34.884 116.655 32.7116 113.476 31.5169 109.893L30.4622 106.715C25.7258 106.148 21.3061 104.043 17.8812 100.723C14.4563 97.4026 12.2153 93.0503 11.502 88.3338C10.7887 83.6173 11.6426 78.7971 13.9325 74.6125C16.2225 70.428 19.822 67.1103 24.179 65.1684C21.8856 63.192 20.0458 60.7439 18.7852 57.9912C17.5246 55.2386 16.8731 52.2463 16.875 49.2188C16.8761 43.867 18.9113 38.7158 22.5684 34.8086C26.2255 30.9014 31.231 28.5303 36.5709 28.1756C36.6484 23.6602 38.4965 19.3559 41.717 16.19C44.9376 13.0242 49.273 11.2501 53.789 11.25ZM53.789 18.2812C51.0851 18.2812 48.4919 19.3554 46.5799 21.2674C44.6679 23.1794 43.5937 25.7726 43.5937 28.4766V31.6406C43.5937 33.5812 42.0187 35.1562 40.0781 35.1562H37.9687C34.2391 35.1562 30.6623 36.6378 28.025 39.2751C25.3878 41.9123 23.9062 45.4891 23.9062 49.2188C23.9062 52.9484 25.3878 56.5252 28.025 59.1624C30.6623 61.7997 34.2391 63.2812 37.9687 63.2812H38.6719C39.6043 63.2812 40.4985 63.6516 41.1578 64.311C41.8171 64.9703 42.1875 65.8645 42.1875 66.7969C42.1875 67.7293 41.8171 68.6235 41.1578 69.2828C40.4985 69.9421 39.6043 70.3125 38.6719 70.3125H33.0469C29.1308 70.3125 25.3751 71.8682 22.606 74.6373C19.8369 77.4063 18.2812 81.162 18.2812 85.0781C18.2812 88.9942 19.8369 92.7499 22.606 95.519C25.3751 98.2881 29.1308 99.8438 33.0469 99.8438C34.4644 99.8438 35.7356 100.696 36.2812 101.981L36.3797 102.248L38.1881 107.665C39.1828 110.646 41.2056 113.176 43.8947 114.803C46.5838 116.429 49.7638 117.046 52.8659 116.543C55.968 116.039 58.79 114.449 60.8269 112.056C62.8639 109.663 63.9831 106.623 63.9844 103.48V28.4766C63.9844 25.7726 62.9102 23.1794 60.9982 21.2674C59.0862 19.3554 56.493 18.2812 53.789 18.2812ZM119.455 45C119.771 45.001 120.079 45.0996 120.337 45.2824C120.595 45.4651 120.79 45.7231 120.895 46.0209L122.158 49.8909C122.55 51.068 123.211 52.1376 124.088 53.0148C124.966 53.8921 126.035 54.5529 127.212 54.945L131.088 56.2022L131.167 56.2219C131.464 56.3295 131.722 56.5258 131.904 56.7843C132.087 57.0428 132.186 57.351 132.187 57.6675C132.189 57.9845 132.092 58.294 131.909 58.5527C131.725 58.8115 131.466 59.0064 131.167 59.1103L127.291 60.3675C126.113 60.7592 125.043 61.4199 124.165 62.2972C123.288 63.1744 122.626 64.2442 122.234 65.4216L120.977 69.2916L120.929 69.4041L120.932 69.4294C120.807 69.7082 120.602 69.9432 120.342 70.1044C120.083 70.2656 119.781 70.3456 119.475 70.3342C119.17 70.3227 118.875 70.2202 118.629 70.04C118.382 69.8597 118.195 69.6099 118.091 69.3225L116.828 65.4469C116.183 63.5042 114.817 61.8833 113.012 60.9188L113.003 60.8766C112.607 60.6679 112.196 60.4911 111.772 60.3478L107.896 59.0906C107.598 58.983 107.341 58.7867 107.158 58.5282C106.976 58.2697 106.877 57.9615 106.875 57.645C106.873 57.328 106.971 57.0185 107.154 56.7598C107.337 56.501 107.596 56.3061 107.896 56.2022L111.772 54.945C112.935 54.543 113.989 53.8776 114.852 53.0009C115.716 52.1243 116.365 51.0599 116.75 49.8909L118.01 46.0209C118.117 45.7233 118.314 45.4659 118.572 45.2833C118.831 45.1007 119.139 45.0019 119.455 45ZM96.885 2.8125C97.4828 2.81358 98.0657 2.99959 98.5536 3.34502C99.0415 3.69045 99.4106 4.17837 99.6103 4.74187L101.992 12.0544C102.732 14.2782 103.981 16.2989 105.638 17.9559C107.296 19.6129 109.317 20.8607 111.541 21.6L118.862 23.9738L119.011 24.0131C119.574 24.2127 120.062 24.5819 120.407 25.0699C120.752 25.5579 120.937 26.1408 120.937 26.7384C120.937 27.336 120.752 27.9189 120.407 28.407C120.062 28.895 119.574 29.2642 119.011 29.4637L111.69 31.8375C109.466 32.578 107.445 33.8261 105.787 35.4829C104.128 37.1397 102.878 39.1597 102.136 41.3831L99.7594 48.6956L99.6862 48.8784C99.4563 49.4129 99.0704 49.8656 98.579 50.1773C98.0877 50.4889 97.5138 50.6451 96.9322 50.6253C96.3507 50.6056 95.7887 50.4108 95.3196 50.0666C94.8506 49.7223 94.4963 49.2445 94.3031 48.6956L91.9266 41.3831C91.1905 39.1524 89.9433 37.1246 88.2845 35.4614C86.6257 33.7983 84.6012 32.5457 82.3725 31.8037L75.0544 29.4244C74.4911 29.2248 74.0034 28.8556 73.6586 28.3676C73.3137 27.8796 73.1285 27.2967 73.1285 26.6991C73.1285 26.1015 73.3137 25.5186 73.6586 25.0305C74.0034 24.5425 74.4911 24.1733 75.0544 23.9738L82.3725 21.6C84.5399 20.8524 86.5083 19.6203 88.1279 17.9973C89.7474 16.3744 90.9754 14.4034 91.7184 12.2344L91.7803 12.0544L94.1569 4.74187C94.3567 4.17792 94.7262 3.68968 95.2147 3.34421C95.7032 2.99874 96.2867 2.813 96.885 2.8125Z" fill="#8C0007"/>
</svg>
