<svg width="137" height="137" viewBox="0 0 137 137" fill="none" xmlns="http://www.w3.org/2000/svg">
<path d="M97.0417 22.8333C95.5277 22.8333 94.0758 22.2319 93.0053 21.1614C91.9347 20.0909 91.3333 18.6389 91.3333 17.125C91.3333 15.611 91.9347 14.1591 93.0053 13.0886C94.0758 12.0181 95.5277 11.4167 97.0417 11.4167H119.875C121.389 11.4167 122.841 12.0181 123.911 13.0886C124.982 14.1591 125.583 15.611 125.583 17.125V39.9583C125.583 41.4723 124.982 42.9242 123.911 43.9947C122.841 45.0652 121.389 45.6667 119.875 45.6667C118.361 45.6667 116.909 45.0652 115.839 43.9947C114.768 42.9242 114.167 41.4723 114.167 39.9583V30.9049L81.0983 63.9733C80.0278 65.0434 78.5761 65.6446 77.0625 65.6446C75.5489 65.6446 74.0972 65.0434 73.0267 63.9733L57.0833 48.0299L26.8691 78.2441C25.7925 79.2839 24.3506 79.8593 22.8539 79.8463C21.3572 79.8333 19.9254 79.2329 18.8671 78.1746C17.8087 77.1162 17.2084 75.6845 17.1954 74.1878C17.1824 72.6911 17.7577 71.2491 18.7975 70.1725L53.0475 35.9225C54.118 34.8524 55.5697 34.2512 57.0833 34.2512C58.597 34.2512 60.0487 34.8524 61.1191 35.9225L77.0625 51.8659L106.095 22.8333H97.0417ZM28.5417 102.75V119.875C28.5417 121.389 27.9403 122.841 26.8697 123.911C25.7992 124.982 24.3473 125.583 22.8333 125.583C21.3194 125.583 19.8675 124.982 18.7969 123.911C17.7264 122.841 17.125 121.389 17.125 119.875V102.75C17.125 101.236 17.7264 99.7841 18.7969 98.7136C19.8675 97.6431 21.3194 97.0416 22.8333 97.0416C24.3473 97.0416 25.7992 97.6431 26.8697 98.7136C27.9403 99.7841 28.5417 101.236 28.5417 102.75ZM57.0833 79.9167C57.0833 78.4027 56.4819 76.9508 55.4114 75.8802C54.3409 74.8097 52.8889 74.2083 51.375 74.2083C49.8611 74.2083 48.4091 74.8097 47.3386 75.8802C46.2681 76.9508 45.6667 78.4027 45.6667 79.9167V119.875C45.6667 121.389 46.2681 122.841 47.3386 123.911C48.4091 124.982 49.8611 125.583 51.375 125.583C52.8889 125.583 54.3409 124.982 55.4114 123.911C56.4819 122.841 57.0833 121.389 57.0833 119.875V79.9167ZM79.9167 85.625C81.4306 85.625 82.8825 86.2264 83.9531 87.2969C85.0236 88.3674 85.625 89.8194 85.625 91.3333V119.875C85.625 121.389 85.0236 122.841 83.9531 123.911C82.8825 124.982 81.4306 125.583 79.9167 125.583C78.4027 125.583 76.9508 124.982 75.8803 123.911C74.8097 122.841 74.2083 121.389 74.2083 119.875V91.3333C74.2083 89.8194 74.8097 88.3674 75.8803 87.2969C76.9508 86.2264 78.4027 85.625 79.9167 85.625ZM114.167 62.7917C114.167 61.2777 113.565 59.8258 112.495 58.7553C111.424 57.6847 109.972 57.0833 108.458 57.0833C106.944 57.0833 105.492 57.6847 104.422 58.7553C103.351 59.8258 102.75 61.2777 102.75 62.7917V119.875C102.75 121.389 103.351 122.841 104.422 123.911C105.492 124.982 106.944 125.583 108.458 125.583C109.972 125.583 111.424 124.982 112.495 123.911C113.565 122.841 114.167 121.389 114.167 119.875V62.7917Z" fill="#25291C"/>
</svg>
