<svg width="74" height="74" viewBox="0 0 74 74" fill="none" xmlns="http://www.w3.org/2000/svg">
<path d="M27.1533 36.7533L22.4367 41.4667L36.58 55.61L50.7233 41.4667L46.01 36.7533L39.9133 42.8467L39.9133 17.7233H33.2467V42.8467L27.1533 36.7533Z" fill="#8C0007"/>
<path fill-rule="evenodd" clip-rule="evenodd" d="M73.3333 13.3333C73.3333 9.79712 71.9286 6.40573 69.4281 3.90525C66.9276 1.40476 63.5362 0 60 0L13.3334 0C9.79713 0 6.40575 1.40476 3.90527 3.90525C1.40478 6.40573 1.52588e-05 9.79712 1.52588e-05 13.3333L1.52588e-05 60C1.52588e-05 63.5362 1.40478 66.9276 3.90527 69.4281C6.40575 71.9286 9.79713 73.3333 13.3334 73.3333L60 73.3333C63.5362 73.3333 66.9276 71.9286 69.4281 69.4281C71.9286 66.9276 73.3333 63.5362 73.3333 60L73.3333 13.3333ZM60 6.66667L13.3334 6.66667C11.5652 6.66667 9.86955 7.36905 8.61931 8.61929C7.36906 9.86953 6.66669 11.5652 6.66669 13.3333L6.66669 60C6.66669 61.7681 7.36906 63.4638 8.61931 64.714C9.86955 65.9643 11.5652 66.6667 13.3334 66.6667H60C61.7681 66.6667 63.4638 65.9643 64.7141 64.714C65.9643 63.4638 66.6667 61.7681 66.6667 60V13.3333C66.6667 11.5652 65.9643 9.86953 64.7141 8.61929C63.4638 7.36905 61.7681 6.66667 60 6.66667Z" fill="#25291C"/>
</svg>
