<svg width="144" height="144" viewBox="0 0 144 144" fill="none" xmlns="http://www.w3.org/2000/svg">
<path d="M72 66C82.26 66 90 58.26 90 48C90 37.74 82.26 30 72 30C61.74 30 54 37.74 54 48C54 58.26 61.74 66 72 66ZM72 42C75.6 42 78 44.4 78 48C78 51.6 75.6 54 72 54C68.4 54 66 51.6 66 48C66 44.4 68.4 42 72 42ZM78 72H66C49.44 72 36 85.44 36 102V105C36 109.98 40.02 114 45 114H99C103.98 114 108 109.98 108 105V102C108 85.44 94.56 72 78 72ZM48 102C48 92.1 56.1 84 66 84H78C87.9 84 96 92.1 96 102H48ZM39 66C41.82 66 44.4 65.28 46.62 64.02C44.1036 60.0135 42.5644 55.4714 42.1266 50.7604C41.6889 46.0495 42.3649 41.3016 44.1 36.9C42.54 36.36 40.8 36 39 36C30.36 36 24 42.36 24 51C24 59.64 30.36 66 39 66ZM36.66 72H33C21.42 72 12 81.42 12 93V99C12 100.68 13.32 102 15 102H24C24 90.24 28.86 79.62 36.66 72ZM105 66C113.64 66 120 59.64 120 51C120 42.36 113.64 36 105 36C103.14 36 101.46 36.36 99.9 36.9C101.635 41.3016 102.311 46.0495 101.873 50.7604C101.436 55.4714 99.8964 60.0135 97.38 64.02C99.6 65.28 102.12 66 105 66ZM111 72H107.34C111.349 75.8999 114.535 80.5643 116.71 85.7172C118.884 90.8702 120.003 96.407 120 102H129C130.68 102 132 100.68 132 99V93C132 81.42 122.58 72 111 72Z" fill="black"/>
</svg>
