<svg width="154" height="154" viewBox="0 0 154 154" fill="none" xmlns="http://www.w3.org/2000/svg">
<g clip-path="url(#clip0_32_284)">
<path fill-rule="evenodd" clip-rule="evenodd" d="M56.0624 124.041C46.8781 124.378 37.6814 124.035 28.5477 123.014C22.7727 123.014 13.4108 123.527 7.8925 123.014C7.8925 122.372 7.37917 121.474 7.315 120.961C7.25083 120.447 5.71083 99.2851 5.32583 98.5151C5.19925 98.1299 4.9543 97.7946 4.62592 97.5569C4.29754 97.3192 3.90248 97.1912 3.49708 97.1912C3.09168 97.1912 2.69663 97.3192 2.36825 97.5569C2.03986 97.7946 1.79492 98.1299 1.66833 98.5151C2.0642 105.877 1.80867 113.259 0.904749 120.576C-0.0577505 133.216 5.20391 130.586 46.5722 129.495L56.3897 128.276C56.8584 128.127 57.2631 127.825 57.5383 127.417C57.8136 127.01 57.9431 126.521 57.906 126.031C57.8688 125.541 57.6672 125.077 57.3337 124.716C57.0003 124.355 56.5481 124.117 56.0624 124.041ZM13.86 68.3696C13.2973 68.4301 12.7747 68.6896 12.3865 69.1014C11.9982 69.5132 11.7698 70.0501 11.7425 70.6154C11.7425 74.2087 34.1944 73.3104 43.1072 73.1179C40.5472 77.2812 39.4414 82.1763 39.963 87.0357C27.29 87.3555 14.6508 88.4915 2.12392 90.4365C1.71641 90.8454 1.48759 91.3992 1.48759 91.9765C1.48759 92.5538 1.71641 93.1076 2.12392 93.5165C3.27892 94.6715 6.16642 94.094 7.44975 94.094C14.5658 94.094 27.5211 94.7357 40.5405 94.4148C56.9607 94.094 71.5843 92.4898 77.1668 92.4898C77.6774 92.4898 78.167 92.287 78.528 91.926C78.889 91.565 79.0918 91.0754 79.0918 90.5648C79.0918 90.0543 78.889 89.5647 78.528 89.2036C78.167 88.8426 77.6774 88.6398 77.1668 88.6398C75.0493 88.6398 75.8835 88.6398 75.5627 87.7415C75.7248 84.6477 75.2377 81.5542 74.1326 78.6599C73.0275 75.7656 71.3289 73.1347 69.146 70.9362L73.7018 70.5512C74.2124 70.5512 74.702 70.3484 75.063 69.9874C75.424 69.6264 75.6268 69.1368 75.6268 68.6262C75.6268 68.1157 75.424 67.6261 75.063 67.2651C74.702 66.9041 74.2124 66.7012 73.7018 66.7012L66.7718 66.3162C66.7718 66.3162 14.63 68.2412 13.86 68.3696ZM71.0068 87.9982C62.216 87.2923 54.4582 86.9715 45.353 87.0357C46.9572 82.6082 46.6363 84.0198 47.1497 82.2873C47.9132 79.233 48.1892 76.0696 47.9838 72.919C51.128 72.919 53.3738 72.919 63.2491 71.6421C68.8316 80.0479 64.6608 76.9679 71.0068 87.9982ZM94.7357 23.8572C95.181 19.2845 94.7454 14.6688 93.4523 10.2602C92.7465 8.14274 88.6398 8.14274 88.6398 10.2602C87.8698 14.9145 87.5062 19.5986 87.549 24.3127C81.8446 24.6977 82.4862 24.6977 67.4135 26.4302C67.4135 19.4361 65.8093 11.0944 65.8735 10.7094C65.8735 7.56524 61.9593 8.59191 61.831 10.7094C60.2434 27.1342 60.2434 43.6737 61.831 60.0985C62.4727 64.3335 65.5527 63.6918 66.7077 60.676C67.0157 58.0109 67.1868 55.3373 67.221 52.6552C73.6377 54.516 79.541 52.0777 79.4127 49.7035C79.3189 49.1144 79.0125 48.58 78.5513 48.2017C78.0901 47.8233 77.5063 47.6271 76.9102 47.6502C73.8078 47.0191 70.6413 46.7606 67.4777 46.8802C67.4777 39.3791 67.8627 38.4807 67.4777 30.9155C74.2087 31.6855 80.9847 31.878 87.7479 31.493C88.1329 35.0863 88.6463 38.6155 89.1596 42.1382C89.1596 42.7169 89.3894 43.2718 89.7986 43.6809C90.2077 44.0901 90.7626 44.3199 91.3412 44.3199C91.9199 44.3199 92.4748 44.0901 92.8839 43.6809C93.2931 43.2718 93.5229 42.7169 93.5229 42.1382C93.5229 38.4166 94.1646 34.7591 94.4212 31.1016C101.281 30.2674 102.5 30.2032 104.168 30.0107C107.12 28.6697 107.12 24.948 103.719 24.2422L94.7357 23.8572Z" fill="#8C0007"/>
<path fill-rule="evenodd" clip-rule="evenodd" d="M111.22 5.9675C107.178 0 96.5965 0.5775 90.2504 0C85.5662 0 19.7633 0.705833 8.02083 2.75917C7.32452 2.81295 6.6499 3.02609 6.04909 3.38213C5.44828 3.73816 4.93737 4.22756 4.55583 4.8125C3.56766 7.18025 2.95808 9.68917 2.75916 12.2558C2.24583 17.8319 3.84999 67.9204 5.64666 69.9737C5.82046 70.1562 6.02951 70.3015 6.26114 70.4008C6.49277 70.5001 6.74215 70.5512 6.99416 70.5512C7.24617 70.5512 7.49555 70.5001 7.72718 70.4008C7.95881 70.3015 8.16786 70.1562 8.34166 69.9737C9.62499 68.7546 6.54499 20.9119 9.68916 9.81108C19.5002 8.33525 68.5621 7.69358 82.2873 7.18025H93.7732C96.8532 7.18025 104.418 7.18025 106.215 9.74692C108.91 13.4686 108.012 36.7482 107.242 59.0718C107.174 59.6461 107.335 60.224 107.69 60.6805C108.045 61.137 108.565 61.4354 109.139 61.5113C109.712 61.5872 110.292 61.4344 110.754 61.086C111.215 60.7375 111.521 60.2215 111.605 59.6493C112.503 51.2478 112.888 42.8248 112.76 34.3805C113.466 25.6538 116.539 13.7252 111.22 5.9675ZM33.7452 106.472C25.5961 107.113 18.5377 109.68 15.6502 109.231C15.4017 109.168 15.1432 109.155 14.8895 109.192C14.6358 109.229 14.3919 109.316 14.1717 109.447C13.7271 109.713 13.4061 110.144 13.2793 110.646C13.2165 110.894 13.2033 111.153 13.2404 111.407C13.2776 111.66 13.3643 111.904 13.4957 112.124C13.6271 112.344 13.8005 112.537 14.0062 112.69C14.2118 112.843 14.4456 112.954 14.6942 113.017C23.0358 114.223 31.4994 114.223 39.8347 113.017C41.503 113.017 43.1072 112.439 44.7755 112.247L54.8497 111.22C55.4283 111.22 55.9832 110.99 56.3923 110.581C56.8015 110.172 57.0313 109.617 57.0313 109.038C57.0313 108.46 56.8015 107.905 56.3923 107.496C55.9832 107.087 55.4283 106.857 54.8497 106.857C47.8402 106.069 40.7788 105.941 33.7452 106.472Z" fill="black"/>
<path fill-rule="evenodd" clip-rule="evenodd" d="M151.177 107.178C147.455 90.4942 131.94 85.9384 115.904 93.8309C111.957 81.4978 106.346 69.7606 99.2273 58.9435C91.5273 49.7677 83.7696 53.8102 82.2938 62.6652C80.3046 74.5296 87.0421 96.3976 90.9563 109.096C83.5129 104.925 72.2902 102.102 69.0177 109.096C63.4352 121.865 76.9102 132.126 86.8496 142.963C87.5554 143.669 95.7688 150.92 98.9771 153.102C102.179 155.283 104.104 153.102 103.013 150.92C98.3527 147.784 94.0493 144.148 90.1798 140.076C81.5238 129.745 69.9802 120.126 74.151 111.727C76.076 107.877 92.6246 115.577 94.3507 120.069C95.1207 122.058 102.307 123.662 100.767 117.438C99.2273 111.214 85.1813 67.0221 90.629 61.3818C92.3615 59.5852 102.564 74.2087 111.227 99.5417C111.386 100.013 111.653 100.44 112.006 100.79C112.359 101.14 112.789 101.404 113.261 101.559C113.734 101.715 114.236 101.758 114.728 101.687C115.22 101.615 115.688 101.43 116.097 101.146C120.23 98.3362 124.984 96.5744 129.95 96.0126C132.306 95.7343 134.694 96.0132 136.922 96.8268C139.15 97.6404 141.155 98.966 142.777 100.697C149.194 107.113 149.194 133.409 148.424 140.717C148.394 141.004 148.422 141.294 148.504 141.569C148.586 141.845 148.722 142.103 148.904 142.326C149.271 142.777 149.802 143.064 150.381 143.124C150.96 143.183 151.538 143.011 151.989 142.644C152.441 142.277 152.728 141.745 152.787 141.167C153.671 129.812 153.132 118.392 151.183 107.171M22.715 30.4022C22.715 32.4555 24.7042 34.3163 25.6025 35.4072C29.7028 40.348 37.3963 40.4763 42.0163 42.9724C45.0322 44.4482 46.7647 42.9724 42.0163 45.0257C38.1022 46.8224 28.4194 49.1966 27.5211 45.0257C27.3979 44.4664 27.0597 43.978 26.5795 43.6658C26.0993 43.3537 25.5156 43.2429 24.9544 43.3574C21.4252 43.9991 22.8369 51.9557 32.7186 52.4691C31.6278 54.6507 33.8094 60.5477 35.9911 60.5477C38.1728 60.5477 40.6111 54.8368 38.8786 52.0777C40.7351 51.821 42.5511 51.3932 44.3263 50.7943C47.9197 49.6393 50.743 48.356 51.5772 44.8268C52.4113 41.3041 49.0105 38.4807 45.4813 36.4916C41.9522 34.5024 32.9688 32.9624 30.7872 30.6524C30.7872 30.6524 29.8953 29.1766 29.3819 29.1124C30.6653 25.1405 42.2153 23.6005 42.7863 25.4613C42.931 25.9548 43.2658 26.3707 43.717 26.6174C44.1683 26.8641 44.6991 26.9214 45.1926 26.7767C45.6861 26.6321 46.102 26.2973 46.3486 25.846C46.5953 25.3948 46.6527 24.864 46.508 24.3705C45.8022 21.483 42.0805 20.328 39.1288 20.0713C39.6963 18.5523 39.6677 16.8748 39.0487 15.3761C38.4297 13.8773 37.2662 12.6685 35.7922 11.9927C35.0577 12.3636 34.4131 12.8905 33.9036 13.5366C33.394 14.1827 33.0319 14.9323 32.8424 15.733C32.6529 16.5337 32.6407 17.3661 32.8066 18.172C32.9726 18.9779 33.3126 19.7378 33.803 20.3986C28.0986 21.5536 22.6508 24.6336 22.715 30.4022Z" fill="#8C0007"/>
</g>
<defs>
<clipPath id="clip0_32_284">
<rect width="154" height="154" fill="white"/>
</clipPath>
</defs>
</svg>
