<svg width="54" height="54" viewBox="0 0 54 54" fill="none" xmlns="http://www.w3.org/2000/svg">
<path fill-rule="evenodd" clip-rule="evenodd" d="M40.8712 6.22122L41.445 6.29322C42.9615 6.50247 44.9685 6.78372 46.1047 7.92222C47.0362 8.85147 47.394 10.3635 47.6077 11.7135L47.7337 12.582C48.0172 14.6295 48.0915 17.3115 47.6077 20.2905C46.6537 26.1697 43.524 33.1852 35.6647 38.6167C35.622 39.0397 35.6197 39.4672 35.6287 39.8947L35.6512 40.5337C35.6872 41.517 35.7232 42.5002 35.4487 43.4542C35.0212 44.9392 33.498 45.918 32.0737 46.62L31.3762 46.9507L30.4762 47.3467C28.7932 48.0622 26.5207 48.7957 25.0965 47.3692C24.2415 46.5165 23.8905 45.2655 23.6047 44.0212L23.499 43.5555C23.3781 42.9678 23.2279 42.3866 23.049 41.814C22.9365 41.484 22.815 41.1502 22.6845 40.8127C22.5409 40.9891 22.3884 41.158 22.2277 41.319C21.4515 42.0952 20.2927 42.6375 19.3387 43.0177C18.297 43.4295 17.118 43.7895 16.0267 44.0865L15.4665 44.235L14.3932 44.5027L13.4212 44.7277L12.258 44.9752L11.5312 45.117C11.1688 45.1841 10.7954 45.162 10.4434 45.0527C10.0914 44.9433 9.77126 44.75 9.51061 44.4894C9.24996 44.2287 9.05663 43.9086 8.94729 43.5565C8.83794 43.2045 8.81588 42.8312 8.88299 42.4687L9.07649 41.499L9.42299 39.9285L9.70199 38.781L9.91349 37.971C10.2105 36.882 10.5705 35.703 10.9845 34.6635C11.3625 33.7072 11.9047 32.5485 12.681 31.7722L12.861 31.599L12.717 31.5405C12.3324 31.3944 11.9429 31.2616 11.5492 31.1422L10.926 30.951C9.36449 30.4785 7.69499 29.97 6.65774 28.9305C5.39774 27.6727 5.82299 25.758 6.43049 24.165L6.67799 23.5485L7.07624 22.6485L7.40699 21.951C8.10899 20.529 9.08774 19.0057 10.5727 18.5782C11.3602 18.3532 12.1792 18.3397 13.0027 18.3622L13.4977 18.378C14.1412 18.4005 14.7825 18.4252 15.4102 18.3645C20.8417 10.503 27.8572 7.37322 33.7365 6.41922C36.095 6.03239 38.4949 5.96579 40.8712 6.22122ZM18.7942 34.74C18.4402 34.4776 18.017 34.3249 17.577 34.3009C17.137 34.2769 16.6997 34.3827 16.3192 34.605L16.0717 34.7715L15.8625 34.9582L15.5812 35.3137C14.9962 36.1597 14.6632 37.3297 14.4045 38.4232L14.1615 39.4762L14.0467 39.9555L14.4765 39.852L15.417 39.636C16.7175 39.3322 18.1597 38.9385 19.0462 38.1397C19.4317 37.7545 19.6642 37.2424 19.7006 36.6987C19.737 36.1549 19.5749 35.6164 19.2442 35.1832L19.0597 34.9717L19.0057 34.92L18.7942 34.74ZM34.956 19.0485C34.5382 18.6305 34.0422 18.299 33.4962 18.0727C32.9503 17.8465 32.3651 17.73 31.7742 17.7299C31.1832 17.7298 30.598 17.846 30.052 18.0721C29.506 18.2982 29.0098 18.6295 28.5919 19.0473C28.1739 19.4651 27.8423 19.9612 27.6161 20.5071C27.3899 21.0531 27.2733 21.6382 27.2732 22.2292C27.2731 22.8201 27.3894 23.4053 27.6155 23.9514C27.8415 24.4974 28.1729 24.9935 28.5907 25.4115C29.4345 26.2556 30.5791 26.7299 31.7726 26.7301C32.9661 26.7303 34.1108 26.2564 34.9549 25.4126C35.7989 24.5688 36.2733 23.4243 36.2735 22.2308C36.2737 21.0373 35.7998 19.8926 34.956 19.0485Z" fill="black"/>
</svg>
