<svg width="29" height="29" viewBox="0 0 29 29" fill="none" xmlns="http://www.w3.org/2000/svg">
<path d="M19.8928 10.6889L18.5757 19.1218C18.5575 19.2381 18.5108 19.348 18.4396 19.4418C18.3685 19.5355 18.2752 19.6101 18.1681 19.6588C18.061 19.7076 17.9435 19.729 17.8261 19.7211C17.7087 19.7132 17.5951 19.6763 17.4954 19.6136L13.085 16.8502C12.9934 16.7928 12.916 16.7153 12.8588 16.6235C12.8016 16.5318 12.7662 16.4281 12.7551 16.3206C12.744 16.213 12.7576 16.1044 12.7949 16.0029C12.8322 15.9014 12.8922 15.8097 12.9702 15.7349L16.6315 12.2259C16.6726 12.1872 16.6242 12.1232 16.5759 12.1522L11.2689 15.3277C10.9535 15.5174 10.5789 15.5832 10.2177 15.5126L8.2964 15.1416C7.60282 15.0075 7.50736 14.0553 8.15865 13.7858L18.4319 9.53856C18.6069 9.46574 18.7982 9.44092 18.986 9.46665C19.1738 9.49239 19.3513 9.56774 19.5003 9.68495C19.6493 9.80216 19.7643 9.95698 19.8335 10.1335C19.9027 10.3099 19.9236 10.5017 19.894 10.6889" fill="#E6E1DE"/>
<path fill-rule="evenodd" clip-rule="evenodd" d="M14.4386 3C7.56921 3 2 8.56921 2 15.4386C2 22.308 7.56921 27.8772 14.4386 27.8772C21.308 27.8772 26.8772 22.308 26.8772 15.4386C26.8772 8.56921 21.308 3 14.4386 3ZM4.1315 15.4386C4.1315 14.085 4.3981 12.7447 4.91608 11.4942C5.43406 10.2437 6.19327 9.10748 7.15037 8.15037C8.10748 7.19327 9.24372 6.43406 10.4942 5.91608C11.7447 5.3981 13.085 5.1315 14.4386 5.1315C15.7921 5.1315 17.1324 5.3981 18.3829 5.91608C19.6334 6.43406 20.7697 7.19327 21.7268 8.15037C22.6839 9.10748 23.4431 10.2437 23.9611 11.4942C24.4791 12.7447 24.7457 14.085 24.7457 15.4386C24.7457 18.1722 23.6597 20.7938 21.7268 22.7268C19.7938 24.6597 17.1722 25.7457 14.4386 25.7457C11.705 25.7457 9.08333 24.6597 7.15037 22.7268C5.21742 20.7938 4.1315 18.1722 4.1315 15.4386Z" fill="#E6E1DE"/>
</svg>
