<svg width="29" height="29" viewBox="0 0 29 29" fill="none" xmlns="http://www.w3.org/2000/svg">
<path d="M20.1734 11.2321L18.8563 19.6651C18.8381 19.7813 18.7914 19.8913 18.7202 19.985C18.6491 20.0787 18.5558 20.1533 18.4487 20.2021C18.3416 20.2508 18.2241 20.2722 18.1066 20.2643C17.9892 20.2564 17.8756 20.2195 17.776 20.1569L13.3656 17.3934C13.2739 17.336 13.1966 17.2585 13.1394 17.1668C13.0822 17.075 13.0467 16.9714 13.0357 16.8638C13.0246 16.7562 13.0382 16.6476 13.0755 16.5461C13.1128 16.4446 13.1728 16.3529 13.2508 16.2781L16.9121 12.7691C16.9531 12.7304 16.9048 12.6664 16.8565 12.6954L11.5495 15.8709C11.234 16.0606 10.8595 16.1264 10.4982 16.0558L8.57698 15.6848C7.8834 15.5507 7.78794 14.5985 8.43923 14.3291L18.7125 10.0818C18.8875 10.009 19.0788 9.98413 19.2666 10.0099C19.4544 10.0356 19.6319 10.111 19.7809 10.2282C19.9298 10.3454 20.0449 10.5002 20.1141 10.6767C20.1833 10.8531 20.2042 11.0449 20.1746 11.2321" fill="#25291C"/>
<path fill-rule="evenodd" clip-rule="evenodd" d="M14.4386 3C7.56921 3 2 8.56921 2 15.4386C2 22.308 7.56921 27.8772 14.4386 27.8772C21.308 27.8772 26.8772 22.308 26.8772 15.4386C26.8772 8.56921 21.308 3 14.4386 3ZM4.1315 15.4386C4.1315 14.085 4.3981 12.7447 4.91608 11.4942C5.43406 10.2437 6.19327 9.10748 7.15037 8.15037C8.10748 7.19327 9.24372 6.43406 10.4942 5.91608C11.7447 5.3981 13.085 5.1315 14.4386 5.1315C15.7921 5.1315 17.1324 5.3981 18.3829 5.91608C19.6334 6.43406 20.7697 7.19327 21.7268 8.15037C22.6839 9.10748 23.4431 10.2437 23.9611 11.4942C24.4791 12.7447 24.7457 14.085 24.7457 15.4386C24.7457 18.1722 23.6597 20.7938 21.7268 22.7268C19.7938 24.6597 17.1722 25.7457 14.4386 25.7457C11.705 25.7457 9.08333 24.6597 7.15037 22.7268C5.21742 20.7938 4.1315 18.1722 4.1315 15.4386Z" fill="#25291C"/>
</svg>
