<svg width="31" height="31" viewBox="0 0 31 31" fill="none" xmlns="http://www.w3.org/2000/svg">
<path d="M7.52655 7.52778C7.08221 7.97857 6.7903 8.61149 6.62755 9.81403C6.46092 11.0605 6.45963 12.7112 6.45963 15.0866V15.9133C6.45963 18.2848 6.46092 19.9342 6.62755 21.1794C6.78901 22.3832 7.08221 23.02 7.52784 23.4747C7.97992 23.9177 8.61284 24.2109 9.81409 24.3724C11.0605 24.539 12.7113 24.5416 15.0867 24.5416H15.9133C18.2848 24.5416 19.9343 24.539 21.1808 24.3724C22.3833 24.2109 23.0201 23.9177 23.4748 23.4721C23.9178 23.0213 24.211 22.3884 24.3725 21.1859C24.5404 19.9394 24.5417 18.2887 24.5417 15.9133V15.0866C24.5417 12.7151 24.5391 11.0657 24.3738 9.82049C24.211 8.61665 23.9178 7.97986 23.4722 7.52519C23.0214 7.08215 22.3885 6.78894 21.1859 6.62749C19.9395 6.46086 18.2887 6.45828 15.9133 6.45828H15.0867C12.7152 6.45828 11.0657 6.46086 9.82055 6.62749C8.61671 6.78894 7.98121 7.08215 7.52655 7.52778ZM15.0867 3.87494H15.9133C17.7798 3.87494 19.6747 3.8194 21.5282 4.0674C23.0214 4.26761 24.2859 4.69515 25.296 5.6949L25.3063 5.70653C26.3048 6.71919 26.7336 7.98374 26.9338 9.47819C27.1805 11.3292 27.125 13.2227 27.125 15.0866V15.9133C27.125 17.7784 27.1818 19.6733 26.9325 21.5282C26.7336 23.0213 26.3048 24.2859 25.305 25.2959L25.2934 25.3063C24.282 26.3047 23.0175 26.7323 21.5218 26.9338C19.6708 27.1805 17.7772 27.1249 15.9133 27.1249H15.0867C13.2215 27.1249 11.3266 27.1805 9.47309 26.9325C7.97863 26.7323 6.71409 26.3047 5.7053 25.305L5.69367 25.2934C4.69651 24.2807 4.26767 23.0162 4.06746 21.5217C3.81946 19.672 3.87501 17.7784 3.87501 15.9133V15.0866C3.87501 13.2214 3.81946 11.3266 4.06876 9.47174C4.26767 7.97857 4.69651 6.71403 5.69625 5.70394L5.70659 5.69361C6.71926 4.69515 7.9838 4.26761 9.47825 4.06611C11.3305 3.82069 13.2241 3.87494 15.0867 3.87494ZM7.7965 10.9507C7.9205 16.9957 10.943 20.6227 16.244 20.6227H16.554V17.1662C18.4993 17.3599 19.9718 18.7859 20.5608 20.6227H23.312C23.03 19.5789 22.5298 18.6068 21.8445 17.7705C21.1591 16.9343 20.3043 16.2528 19.3363 15.7712C20.2035 15.2429 20.9525 14.5415 21.5366 13.7107C22.1206 12.88 22.5271 11.9378 22.7308 10.9429H20.2353C19.6928 12.8649 18.0808 14.6087 16.554 14.7714V10.9507H14.0508V17.6467C12.5008 17.2592 10.5478 15.3837 10.4625 10.9507H7.7965Z" fill="#E6E1DE"/>
</svg>
