<svg width="24" height="24" viewBox="0 0 24 24" fill="none" xmlns="http://www.w3.org/2000/svg">
<path d="M3.65686 3.65815C3.21252 4.10894 2.92061 4.74186 2.75786 5.9444C2.59123 7.19086 2.58994 8.84161 2.58994 11.217V12.0436C2.58994 14.4151 2.59123 16.0646 2.75786 17.3098C2.91932 18.5136 3.21252 19.1504 3.65815 19.6051C4.11023 20.0481 4.74315 20.3413 5.9444 20.5028C7.19086 20.6694 8.84161 20.672 11.217 20.672H12.0436C14.4151 20.672 16.0646 20.6694 17.3111 20.5028C18.5136 20.3413 19.1504 20.0481 19.6051 19.6025C20.0481 19.1517 20.3413 18.5188 20.5028 17.3162C20.6707 16.0698 20.672 14.419 20.672 12.0436V11.217C20.672 8.84548 20.6694 7.19602 20.5041 5.95086C20.3413 4.74702 20.0481 4.11023 19.6025 3.65557C19.1517 3.21252 18.5188 2.91932 17.3162 2.75786C16.0698 2.59123 14.419 2.58865 12.0436 2.58865H11.217C8.84548 2.58865 7.19602 2.59123 5.95086 2.75786C4.74702 2.91932 4.11152 3.21252 3.65686 3.65815ZM11.217 0.0053153H12.0436C13.9101 0.0053153 15.805 -0.0502264 17.6585 0.197774C19.1517 0.397982 20.4162 0.825523 21.4263 1.82527L21.4366 1.8369C22.4351 2.84957 22.8639 4.11411 23.0641 5.60856C23.3109 7.45952 23.2553 9.35311 23.2553 11.217V12.0436C23.2553 13.9088 23.3121 15.8037 23.0629 17.6585C22.8639 19.1517 22.4351 20.4162 21.4354 21.4263L21.4237 21.4366C20.4124 22.4351 19.1478 22.8626 17.6521 23.0641C15.8011 23.3109 13.9075 23.2553 12.0436 23.2553H11.217C9.35181 23.2553 7.45694 23.3109 5.6034 23.0629C4.10894 22.8626 2.8444 22.4351 1.83561 21.4354L1.82398 21.4237C0.826815 20.4111 0.397982 19.1465 0.197774 17.6521C-0.0502264 15.8024 0.0053153 13.9088 0.0053153 12.0436V11.217C0.0053153 9.35181 -0.0502262 7.45694 0.199065 5.60211C0.397982 4.10894 0.826815 2.8444 1.82656 1.83431L1.8369 1.82398C2.84957 0.825524 4.11411 0.397982 5.60856 0.196482C7.46081 -0.0489347 9.3544 0.0053153 11.217 0.0053153ZM3.92681 7.08106C4.05081 13.1261 7.07331 16.7531 12.3743 16.7531H12.6843V13.2966C14.6296 13.4903 16.1021 14.9163 16.6911 16.7531H19.4423C19.1603 15.7093 18.6601 14.7372 17.9748 13.9009C17.2895 13.0646 16.4346 12.3832 15.4666 11.9016C16.3338 11.3733 17.0828 10.6718 17.6669 9.84111C18.2509 9.01039 18.6574 8.06818 18.8611 7.07331H16.3656C15.8231 8.99531 14.2111 10.7391 12.6843 10.9018V7.08106H10.1811V13.7771C8.63106 13.3896 6.67806 11.5141 6.59281 7.08106H3.92681Z" fill="#25291C"/>
</svg>
