<svg width="29" height="29" viewBox="0 0 29 29" fill="none" xmlns="http://www.w3.org/2000/svg">
<path d="M23.0188 5.93282C21.9108 4.81403 20.5913 3.92694 19.137 3.32326C17.6828 2.71957 16.1229 2.41135 14.5484 2.41657C7.95086 2.41657 2.57378 7.79365 2.57378 14.3912C2.57378 16.5057 3.12961 18.5599 4.16878 20.3724L2.47711 26.5832L8.82086 24.9157C10.5729 25.8703 12.5425 26.3778 14.5484 26.3778C21.1459 26.3778 26.5229 21.0007 26.5229 14.4032C26.5229 11.2012 25.2784 8.1924 23.0188 5.93282ZM14.5484 24.3478C12.76 24.3478 11.0079 23.8645 9.47336 22.9582L9.11086 22.7407L5.34086 23.7316L6.34378 20.0582L6.10211 19.6837C5.10831 18.0972 4.58073 16.2632 4.57961 14.3912C4.57961 8.90532 9.05044 4.43449 14.5363 4.43449C17.1946 4.43449 19.6959 5.47365 21.5688 7.35865C22.4963 8.28165 23.2313 9.37964 23.7312 10.5889C24.2311 11.7982 24.4859 13.0947 24.4809 14.4032C24.505 19.8891 20.0342 24.3478 14.5484 24.3478ZM20.01 16.9045C19.7079 16.7595 18.2338 16.0345 17.9679 15.9257C17.69 15.8291 17.4967 15.7807 17.2913 16.0707C17.0859 16.3728 16.5179 17.0495 16.3488 17.2428C16.1796 17.4482 15.9984 17.4724 15.6963 17.3153C15.3942 17.1703 14.4275 16.8441 13.2917 15.8291C12.3975 15.0316 11.8054 14.0528 11.6242 13.7507C11.455 13.4487 11.6 13.2916 11.7571 13.1345C11.89 13.0016 12.0592 12.7841 12.2042 12.6149C12.3492 12.4457 12.4096 12.3128 12.5063 12.1195C12.6029 11.9141 12.5546 11.7449 12.4821 11.5999C12.4096 11.4549 11.8054 9.98074 11.5638 9.37657C11.3221 8.79657 11.0684 8.86907 10.8871 8.85699H10.3071C10.1017 8.85699 9.78753 8.92949 9.50961 9.23157C9.24378 9.53365 8.47044 10.2587 8.47044 11.7328C8.47044 13.207 9.54586 14.6328 9.69086 14.8262C9.83586 15.0316 11.8054 18.0524 14.8021 19.3453C15.515 19.6595 16.0709 19.8407 16.5059 19.9737C17.2188 20.2032 17.8713 20.167 18.3909 20.0945C18.9709 20.0099 20.1671 19.3695 20.4088 18.6687C20.6625 17.9678 20.6625 17.3757 20.5779 17.2428C20.4934 17.1099 20.3121 17.0495 20.01 16.9045Z" fill="#E6E1DE"/>
</svg>
