<svg width="25" height="25" viewBox="0 0 25 25" fill="none" xmlns="http://www.w3.org/2000/svg">
<path d="M20.5417 3.51631C19.4337 2.39753 18.1142 1.51044 16.6599 0.906753C15.2057 0.303065 13.6458 -0.00515133 12.0712 6.51233e-05C5.47375 6.51233e-05 0.0966669 5.37715 0.0966669 11.9746C0.0966669 14.0892 0.6525 16.1434 1.69167 17.9559L0 24.1667L6.34375 22.4992C8.09583 23.4538 10.0654 23.9613 12.0712 23.9613C18.6687 23.9613 24.0458 18.5842 24.0458 11.9867C24.0458 8.78465 22.8012 5.7759 20.5417 3.51631ZM12.0712 21.9313C10.2829 21.9313 8.53083 21.448 6.99625 20.5417L6.63375 20.3242L2.86375 21.3151L3.86667 17.6417L3.625 17.2672C2.6312 15.6807 2.10362 13.8467 2.1025 11.9746C2.1025 6.48882 6.57333 2.01798 12.0592 2.01798C14.7175 2.01798 17.2188 3.05715 19.0917 4.94215C20.0192 5.86515 20.7542 6.96314 21.2541 8.17242C21.754 9.3817 22.0088 10.6782 22.0037 11.9867C22.0279 17.4726 17.5571 21.9313 12.0712 21.9313ZM17.5329 14.488C17.2308 14.343 15.7567 13.618 15.4908 13.5092C15.2129 13.4126 15.0196 13.3642 14.8142 13.6542C14.6087 13.9563 14.0408 14.633 13.8717 14.8263C13.7025 15.0317 13.5212 15.0559 13.2192 14.8988C12.9171 14.7538 11.9504 14.4276 10.8146 13.4126C9.92042 12.6151 9.32833 11.6363 9.14708 11.3342C8.97792 11.0321 9.12292 10.8751 9.28 10.718C9.41292 10.5851 9.58208 10.3676 9.72708 10.1984C9.87208 10.0292 9.9325 9.89632 10.0292 9.70298C10.1258 9.49757 10.0775 9.3284 10.005 9.1834C9.9325 9.0384 9.32833 7.56423 9.08667 6.96007C8.845 6.38007 8.59125 6.45257 8.41 6.44048H7.83C7.62458 6.44048 7.31042 6.51298 7.0325 6.81507C6.76667 7.11715 5.99333 7.84215 5.99333 9.31632C5.99333 10.7905 7.06875 12.2163 7.21375 12.4096C7.35875 12.6151 9.32833 15.6359 12.325 16.9288C13.0379 17.243 13.5937 17.4242 14.0287 17.5571C14.7417 17.7867 15.3942 17.7505 15.9137 17.678C16.4937 17.5934 17.69 16.953 17.9317 16.2521C18.1854 15.5513 18.1854 14.9592 18.1008 14.8263C18.0162 14.6934 17.835 14.633 17.5329 14.488Z" fill="#25291C"/>
</svg>
